<?xml version="1.0" encoding="UTF-8"?><svg id="b" xmlns="http://www.w3.org/2000/svg" viewBox="0 0 457.45 450.41"><defs><style>.d{fill:#21448e;}</style></defs><g id="c"><path class="d" d="M261.24,4.03v131.95c0,18.5-14.99,33.5-33.49,33.5h0c-18.5,0-33.49-15-33.49-33.5V4.03c-6.13,1.55-12.08,3.53-17.84,5.87v126.07c0,28.34,22.98,51.32,51.33,51.32h0c28.35,0,51.33-22.98,51.33-51.32V9.91c-5.76-2.35-11.71-4.32-17.84-5.87Z"/><path class="d" d="M232.96,0v135.98c0,2.88-2.34,5.2-5.21,5.2h0c-2.87,0-5.21-2.33-5.21-5.2V0c-6.06.22-12.01.86-17.84,1.85v134.13c0,12.72,10.31,23.04,23.05,23.04h0c12.74,0,23.05-10.32,23.05-23.04V1.85c-5.83-.99-11.78-1.63-17.84-1.85Z"/><path class="d" d="M289.53,14.7v121.28c0,34.11-27.66,61.78-61.78,61.78h0c-34.12,0-61.78-27.67-61.78-61.78V14.7c-6.27,3.19-12.25,6.85-17.9,10.94v110.34c0,44,35.67,79.67,79.67,79.67h0c44.01,0,79.67-35.68,79.67-79.67V25.64c-5.65-4.09-11.63-7.74-17.9-10.94Z"/><path class="d" d="M317.88,34.01v101.97c0,49.77-40.34,90.12-90.13,90.12h0c-49.78,0-90.13-40.35-90.13-90.12V34.01c-6.56,5.8-12.56,12.23-17.9,19.17v82.8c0,59.65,48.35,108.02,108.02,108.02h0c59.67,0,108.02-48.37,108.02-108.02V53.18c-5.33-6.95-11.34-13.37-17.9-19.17Z"/><path class="d" d="M346.22,68.97v67.01c0,65.42-53.03,118.48-118.47,118.48h0c-65.44,0-118.47-53.06-118.47-118.48v-67.01c-11.23,19.79-17.67,42.66-17.67,67.04,0,75.19,60.96,136.15,136.14,136.15h0c75.19,0,136.14-60.95,136.14-136.15,0-24.38-6.45-47.25-17.67-67.04Z"/><polygon class="d" points="201.58 302.86 201.58 348.66 174.38 302.86 142.4 302.86 142.4 393.57 173.88 393.57 173.88 348.15 173.94 348.25 201.61 393.57 233 393.57 233 302.86 201.58 302.86"/><path class="d" d="M43.71,352.06v-49.2h32.59v49.45c0,5.74.68,9.7,2.04,11.87,1.36,2.17,3.7,3.25,7,3.25s5.6-1.11,7-3.35c1.4-2.23,2.11-6.15,2.11-11.77v-49.45h32.59v49.2c0,6.44-.42,11.75-1.27,15.92-.85,4.17-2.2,7.66-4.06,10.47-3.64,5.66-8.59,10-14.87,13.01-6.28,3.01-13.45,4.52-21.5,4.52s-15.28-1.51-21.56-4.52c-6.28-3.01-11.24-7.35-14.87-13.01-1.82-2.77-3.14-6.22-3.97-10.35-.83-4.13-1.24-9.48-1.24-16.05Z"/><path class="d" d="M248.35,393.57v-90.72h60.66v24.6h-28.69v8.74h26.03v23.24h-26.03v9.54h29.43v24.6h-61.41Z"/><path class="d" d="M325.11,393.57v-90.72h26.4c8.39,0,15.54.47,21.47,1.39,5.93.93,10.75,2.37,14.47,4.31,7.85,4.13,13.87,9.6,18.06,16.42,4.19,6.82,6.29,14.58,6.29,23.3s-2.09,16.4-6.26,23.17c-4.17,6.78-10.2,12.25-18.09,16.42-3.84,1.98-8.72,3.43-14.62,4.34-5.91.91-13.82,1.36-23.73,1.36h-23.98ZM357.46,365.88c7.35-.04,12.72-1.48,16.11-4.31,3.39-2.83,5.08-7.26,5.08-13.29s-1.62-10.31-4.86-13.2c-3.24-2.89-8.21-4.34-14.9-4.34h-1.43v35.13Z"/><path class="d" d="M0,424.28h3.41v18.24c0,1.86.17,3.1.5,3.71.35.61,1.03.92,2.04.92s1.68-.27,2.01-.8c.33-.55.5-1.66.5-3.33v-18.74h3.41v18.74c0,2.81-.43,4.71-1.29,5.7-1.03,1.13-2.59,1.69-4.7,1.69-2.32,0-3.95-.72-4.9-2.17-.66-.99-.99-2.9-.99-5.72v-18.24Z"/><path class="d" d="M18.59,424.28h3.24l3.46,10.3c1,2.91,1.89,6.01,2.66,9.31-.28-2-.49-3.8-.62-5.42-.13-1.62-.2-3.14-.2-4.56v-9.63h3.49v25.81h-3.26l-3.9-11.62c-.36-1.08-.69-2.19-1.01-3.33-.32-1.14-.61-2.33-.88-3.58-.02-.16-.06-.35-.11-.57-.05-.22-.11-.48-.17-.77.03.29.06.54.08.74.02.21.04.38.05.53l.18,2.62.18,3.19c.01.18.02.4.03.65,0,.26,0,.55,0,.87l.18,11.25h-3.43v-25.81Z"/><path class="d" d="M37.34,424.28h3.48v25.81h-3.48v-25.81Z"/><path class="d" d="M45.48,424.28h3.43l1.55,9.53.27,1.72.55,3.74c.09.64.17,1.22.24,1.74.07.52.14,1,.19,1.42l.17,1.27c.03-.26.06-.48.08-.68.02-.2.04-.37.07-.5l.45-2.99.59-3.93c.06-.36.11-.69.16-.99.05-.3.1-.57.14-.8l1.67-9.53h3.24l-5.07,25.81h-2.76l-4.98-25.81Z"/><path class="d" d="M62.93,424.28h9.24v2.94h-5.77v8.17h5.12v2.94h-5.12v8.81h5.77v2.94h-9.24v-25.81Z"/><path class="d" d="M78.11,424.28h4.58c1.89,0,3.3.45,4.23,1.35,1.17,1.17,1.76,2.96,1.76,5.37,0,1.85-.31,3.34-.93,4.46-.62,1.12-1.5,1.81-2.65,2.08l4.75,12.55h-3.53l-4.73-12.64v12.64h-3.48v-25.81ZM81.58,435.71c1.35,0,2.3-.31,2.86-.94s.84-1.68.84-3.16c0-.8-.06-1.49-.18-2.06-.12-.57-.3-1.03-.55-1.39-.25-.36-.57-.62-.97-.79-.4-.17-.87-.25-1.41-.25h-.58v8.58Z"/><path class="d" d="M103.88,424.82v3.39c-1.06-.76-2.01-1.14-2.86-1.14-.91,0-1.66.32-2.24.97-.58.61-.87,1.43-.87,2.46,0,.9.21,1.68.62,2.32.21.35.56.79,1.05,1.34s1.11,1.2,1.88,1.97c1.41,1.44,2.38,2.68,2.89,3.73.51,1.01.77,2.26.77,3.73,0,2-.56,3.64-1.69,4.93-1.13,1.26-2.57,1.89-4.33,1.89-1.48,0-2.75-.41-3.8-1.22v-3.44c1.24.9,2.36,1.35,3.38,1.35.95,0,1.69-.31,2.22-.94.54-.63.8-1.48.8-2.57,0-.94-.21-1.78-.62-2.52-.21-.36-.51-.77-.89-1.23-.38-.46-.85-.98-1.42-1.55-.88-.87-1.61-1.64-2.19-2.31s-1.01-1.25-1.29-1.76c-.53-.98-.8-2.22-.8-3.71,0-2.02.52-3.62,1.57-4.8,1.06-1.19,2.48-1.79,4.26-1.79,1.24,0,2.42.29,3.54.89Z"/><path class="d" d="M110.78,424.28h3.48v25.81h-3.48v-25.81Z"/><path class="d" d="M120.98,424.28h4.28c1.3,0,2.4.14,3.29.44.82.28,1.56.77,2.21,1.49.97,1.07,1.66,2.46,2.07,4.18.41,1.66.62,4.04.62,7.14,0,2.84-.23,5.16-.68,6.95-.45,1.72-1.18,3.03-2.21,3.93-1.26,1.13-3.52,1.69-6.77,1.69h-2.81v-25.81ZM124.45,447.05c2.12,0,3.53-.64,4.25-1.92.74-1.28,1.1-3.77,1.1-7.47,0-3.98-.35-6.71-1.05-8.21-.7-1.49-1.99-2.24-3.86-2.24h-.43v19.84Z"/><path class="d" d="M143.12,424.28h2.71l5.53,25.81h-3.44l-.97-5.03h-5.12l-.99,5.03h-3.34l5.62-25.81ZM146.45,442.37l-.77-4.11c-.51-2.8-.93-5.78-1.25-8.96-.16,1.55-.36,3.12-.6,4.71-.25,1.59-.54,3.27-.87,5.06l-.64,3.31h4.13Z"/><path class="d" d="M156.14,424.28h4.28c1.3,0,2.4.14,3.29.44.82.28,1.56.77,2.21,1.49.97,1.07,1.66,2.46,2.07,4.18.41,1.66.62,4.04.62,7.14,0,2.84-.23,5.16-.68,6.95-.45,1.72-1.18,3.03-2.21,3.93-1.26,1.13-3.52,1.69-6.77,1.69h-2.81v-25.81ZM159.62,447.05c2.12,0,3.53-.64,4.25-1.92.74-1.28,1.1-3.77,1.1-7.47,0-3.98-.35-6.71-1.05-8.21-.7-1.49-1.99-2.24-3.86-2.24h-.43v19.84Z"/><path class="d" d="M184.64,424.28h9.24v2.94h-5.77v8.17h5.12v2.94h-5.12v8.81h5.77v2.94h-9.24v-25.81Z"/><path class="d" d="M208.43,424.82v3.39c-1.06-.76-2.01-1.14-2.86-1.14-.91,0-1.66.32-2.24.97-.58.61-.87,1.43-.87,2.46,0,.9.21,1.68.62,2.32.21.35.56.79,1.05,1.34s1.11,1.2,1.88,1.97c1.41,1.44,2.38,2.68,2.89,3.73.51,1.01.77,2.26.77,3.73,0,2-.56,3.64-1.69,4.93-1.13,1.26-2.57,1.89-4.33,1.89-1.48,0-2.75-.41-3.8-1.22v-3.44c1.24.9,2.36,1.35,3.38,1.35.95,0,1.69-.31,2.22-.94s.8-1.48.8-2.57c0-.94-.21-1.78-.62-2.52-.21-.36-.51-.77-.89-1.23-.38-.46-.85-.98-1.42-1.55-.88-.87-1.61-1.64-2.19-2.31-.58-.67-1.01-1.25-1.29-1.76-.53-.98-.8-2.22-.8-3.71,0-2.02.52-3.62,1.57-4.8,1.06-1.19,2.48-1.79,4.26-1.79,1.24,0,2.42.29,3.54.89Z"/><path class="d" d="M213.69,424.28h11.32v3.04h-3.89v22.77h-3.41v-22.77h-4.01v-3.04Z"/><path class="d" d="M232.86,424.28h2.71l5.53,25.81h-3.44l-.97-5.03h-5.12l-.99,5.03h-3.34l5.62-25.81ZM236.19,442.37l-.77-4.11c-.51-2.8-.93-5.78-1.25-8.96-.16,1.55-.36,3.12-.6,4.71-.25,1.59-.54,3.27-.87,5.06l-.64,3.31h4.13Z"/><path class="d" d="M243.27,424.28h11.32v3.04h-3.89v22.77h-3.41v-22.77h-4.01v-3.04Z"/><path class="d" d="M262.45,424.28h2.71l5.53,25.81h-3.44l-.97-5.03h-5.12l-.99,5.03h-3.34l5.62-25.81ZM265.77,442.37l-.77-4.11c-.51-2.8-.93-5.78-1.25-8.96-.16,1.55-.36,3.12-.6,4.71-.25,1.59-.54,3.27-.87,5.06l-.64,3.31h4.13Z"/><path class="d" d="M275.47,424.28h3.48v22.87h5.68v2.94h-9.16v-25.81Z"/><path class="d" d="M303.04,424.28h2.71l5.53,25.81h-3.44l-.97-5.03h-5.12l-.99,5.03h-3.34l5.62-25.81ZM306.37,442.37l-.77-4.11c-.51-2.8-.93-5.78-1.25-8.96-.16,1.55-.36,3.12-.6,4.71-.25,1.59-.54,3.27-.87,5.06l-.64,3.31h4.13Z"/><path class="d" d="M325.89,424.28h4.28c1.3,0,2.4.14,3.29.44.82.28,1.56.77,2.21,1.49.97,1.07,1.66,2.46,2.07,4.18.41,1.66.62,4.04.62,7.14,0,2.84-.23,5.16-.68,6.95-.45,1.72-1.18,3.03-2.21,3.93-1.26,1.13-3.52,1.69-6.77,1.69h-2.81v-25.81ZM329.37,447.05c2.12,0,3.53-.64,4.25-1.92.74-1.28,1.1-3.77,1.1-7.47,0-3.98-.35-6.71-1.05-8.21-.7-1.49-1.99-2.24-3.86-2.24h-.43v19.84Z"/><path class="d" d="M344.56,424.28h3.48v25.81h-3.48v-25.81Z"/><path class="d" d="M363.36,424.82v3.39c-1.06-.76-2.01-1.14-2.86-1.14-.91,0-1.66.32-2.24.97-.58.61-.87,1.43-.87,2.46,0,.9.21,1.68.62,2.32.21.35.56.79,1.05,1.34.49.55,1.11,1.2,1.88,1.97,1.41,1.44,2.38,2.68,2.89,3.73.51,1.01.77,2.26.77,3.73,0,2-.56,3.64-1.69,4.93-1.13,1.26-2.57,1.89-4.33,1.89-1.48,0-2.75-.41-3.8-1.22v-3.44c1.24.9,2.36,1.35,3.38,1.35.95,0,1.69-.31,2.22-.94.54-.63.8-1.48.8-2.57,0-.94-.21-1.78-.62-2.52-.21-.36-.51-.77-.89-1.23-.38-.46-.85-.98-1.42-1.55-.88-.87-1.61-1.64-2.19-2.31-.58-.67-1.01-1.25-1.29-1.76-.53-.98-.8-2.22-.8-3.71,0-2.02.52-3.62,1.57-4.8,1.06-1.19,2.48-1.79,4.26-1.79,1.24,0,2.42.29,3.54.89Z"/><path class="d" d="M368.63,424.28h11.32v3.04h-3.89v22.77h-3.41v-22.77h-4.01v-3.04Z"/><path class="d" d="M387.8,424.28h2.71l5.53,25.81h-3.44l-.97-5.03h-5.12l-.99,5.03h-3.34l5.62-25.81ZM391.13,442.37l-.77-4.11c-.51-2.8-.93-5.78-1.25-8.96-.16,1.55-.36,3.12-.6,4.71-.25,1.59-.54,3.27-.87,5.06l-.64,3.31h4.13Z"/><path class="d" d="M400.82,424.28h3.24l3.46,10.3c1,2.91,1.89,6.01,2.66,9.31-.28-2-.49-3.8-.62-5.42-.13-1.62-.2-3.14-.2-4.56v-9.63h3.49v25.81h-3.26l-3.9-11.62c-.36-1.08-.69-2.19-1.01-3.33-.32-1.14-.61-2.33-.88-3.58-.02-.16-.06-.35-.11-.57-.05-.22-.11-.48-.17-.77.03.29.06.54.08.74.02.21.04.38.05.53l.18,2.62.18,3.19c.01.18.02.4.03.65,0,.26,0,.55,0,.87l.18,11.25h-3.43v-25.81Z"/><path class="d" d="M429.67,424.7v3.13c-.89-.43-1.64-.65-2.24-.65-.82,0-1.53.2-2.12.61-.59.41-1.08,1.03-1.46,1.88-.38.85-.67,1.92-.85,3.22-.18,1.3-.28,2.83-.28,4.61,0,6.38,1.63,9.56,4.9,9.56.57,0,1.25-.18,2.06-.53v3.19c-.84.47-1.77.7-2.81.7-5.23,0-7.84-4.27-7.84-12.8,0-4.61.64-8.05,1.91-10.3,1.28-2.25,3.23-3.38,5.86-3.38.97,0,1.93.26,2.88.77Z"/><path class="d" d="M435.33,424.28h3.48v25.81h-3.48v-25.81Z"/><path class="d" d="M449.21,424.28h2.71l5.53,25.81h-3.44l-.97-5.03h-5.12l-.99,5.03h-3.34l5.62-25.81ZM452.53,442.37l-.77-4.11c-.51-2.8-.93-5.78-1.25-8.96-.16,1.55-.36,3.12-.6,4.71-.25,1.59-.54,3.27-.87,5.06l-.64,3.31h4.13Z"/></g></svg>